<?xml version="1.0" encoding="iso-8859-1"?>
<!-- Generator: Adobe Illustrator 18.1.1, SVG Export Plug-In . SVG Version: 6.00 Build 0)  -->
<svg version="1.1" id="Capa_1" xmlns="http://www.w3.org/2000/svg" xmlns:xlink="http://www.w3.org/1999/xlink" x="0px" y="0px"
	 viewBox="0 0 27.921 27.921" style="enable-background:new 0 0 27.921 27.921;" xml:space="preserve">
<g>
	<path d="M18.563,27.921c-0.079,0-0.157-0.019-0.229-0.047c-0.209-0.095-0.345-0.299-0.345-0.524v-2.92H7.935
		c-3.371,0-6.113-2.74-6.113-6.112c0-0.009,0-0.128,0.002-0.14l-0.002-0.042c0-3.394,2.742-6.137,6.115-6.137h12.051
		c1.214,0,2.197-0.982,2.197-2.194l0.001-0.143c-0.001-1.273-0.985-2.258-2.199-2.258H9.936v2.884c0,0.229-0.135,0.432-0.344,0.527
		c-0.205,0.089-0.451,0.048-0.62-0.109L3.755,5.852C3.639,5.745,3.572,5.596,3.572,5.435c0-0.16,0.066-0.312,0.182-0.42l5.218-4.862
		c0.169-0.156,0.415-0.196,0.62-0.106c0.209,0.095,0.344,0.299,0.344,0.524v2.918h10.052c3.37,0,6.112,2.742,6.112,6.111v0.188
		c0,3.388-2.742,6.133-6.112,6.133H7.937c-1.213,0-2.197,0.983-2.197,2.192l-0.001,0.142c0.001,1.274,0.985,2.262,2.196,2.262
		h10.054V17.63c0-0.227,0.136-0.432,0.345-0.522c0.208-0.091,0.453-0.051,0.62,0.106l5.219,4.852
		c0.116,0.109,0.181,0.263,0.181,0.424c0,0.155-0.065,0.311-0.181,0.416l-5.219,4.859C18.842,27.867,18.704,27.921,18.563,27.921z"
		/>
	<g>
	</g>
	<g>
	</g>
	<g>
	</g>
	<g>
	</g>
	<g>
	</g>
	<g>
	</g>
	<g>
	</g>
	<g>
	</g>
	<g>
	</g>
	<g>
	</g>
	<g>
	</g>
	<g>
	</g>
	<g>
	</g>
	<g>
	</g>
	<g>
	</g>
</g>
<g>
</g>
<g>
</g>
<g>
</g>
<g>
</g>
<g>
</g>
<g>
</g>
<g>
</g>
<g>
</g>
<g>
</g>
<g>
</g>
<g>
</g>
<g>
</g>
<g>
</g>
<g>
</g>
<g>
</g>
</svg>
