<svg height="481pt" viewBox="-71 0 481 481.10126" width="481pt" xmlns="http://www.w3.org/2000/svg"><path d="m306.8125 92.054688-.011719.015624h.027344v-.007812zm0 0" fill="#ffcd00"/><path d="m307.363281 59.085938-30.914062-8.28125zm0 0" fill="#ffcd00"/><path d="m290.746094 233.101562h-128v240h104zm0 0" fill="#e13957"/><path d="m122.746094 233.101562h-88l24 240h104v-240zm0 0" fill="#d80027"/><path d="m122.746094 9.101562h40v224h-40zm0 0" fill="#ffcd00"/><path d="m162.746094 9.101562v224h40v-224zm0 0" fill="#ffd839"/><path d="m54.667969 49.019531-.007813-.007812-23.042968 6.175781 48.929687 177.914062h23.480469zm0 0" fill="#8cdb53"/><path d="m8.347656 61.429688 46 171.671874h26.199219l-48.929687-177.914062zm0 0" fill="#7ed63e"/><path d="m54.660156 49.011719-33.511718-32.46875-.082032.269531 10.550782 38.375zm0 0" fill="#7d7e81"/><path d="m21.066406 16.8125-12.71875 44.609375v.007813l23.269532-6.242188zm0 0" fill="#6d6e71"/><path d="m219.304688 233.101562h25.5625l38.960937-147.183593-23.402344-6.257813zm0 0" fill="#2488ff"/><path d="m269.066406 233.101562 37.761719-141.03125h-.027344l-22.972656-6.152343-38.960937 147.183593zm0 0" fill="#3c95ff"/><path d="m292.019531 54.972656-8.191406 30.929688 22.984375 6.152344 8.269531-30.898438-7.71875-2.070312zm0 0" fill="#6aaeff"/><path d="m276.449219 50.804688-7.726563-2.070313-8.28125 30.910156 23.386719 6.257813 8.191406-30.929688zm0 0" fill="#57a4ff"/><path d="m304.296875 8.574219c-8.527344-2.269531-17.28125 2.796875-19.566406 11.320312l-8.28125 30.910157 15.570312 4.167968zm0 0" fill="#c2dff6"/><path d="m304.347656 8.582031-12.28125 46.398438 15.34375 4.113281 8.28125-30.914062c1.097656-4.101563.519532-8.472657-1.609375-12.152344-2.128906-3.675782-5.628906-6.355469-9.734375-7.445313zm0 0" fill="#c9e3f7"/><path d="m229.820312 440.300781 2.402344-24 15.917969 1.59375-2.402344 24zm0 0"/><path d="m233.828125 400.207031 13.605469-135.902343 15.917968 1.59375-13.601562 135.902343zm0 0"/><path d="m30.003906 80.476562 15.453125-4.140624 4.144531 15.453124-15.457031 4.140626zm0 0"/><path d="m316.617188 86.414062 8.273437-30.914062-7.742187-2.070312 6.214843-23.199219c3.429688-12.8125-4.175781-25.980469-16.988281-29.414063-12.8125-3.429687-25.980469 4.175782-29.414062 16.988282l-6.207032 23.199218-7.726562-2.070312-49.878906 186.167968h-2.402344v-224h-96v224h-4.582032l-48.335937-180.289062-44.679687-43.3125-17.0976568 59.855469 43.8710938 163.746093h-17.976563l25.601563 256h222.480469l25.597656-256h-20.132812l32.992187-123.199218 7.710937 2.0625-14.503906 54.097656 15.457032 4.132812 18.636718-69.542968zm-24.160157-64.449218c1.160157-4.25 5.535157-6.761719 9.789063-5.625 4.253906 1.140625 6.785156 5.503906 5.667968 9.761718l-6.214843 23.199219-15.457031-4.136719zm-22.214843 52 4.136718-15.457032 30.910156 8.28125-4.140624 15.472657zm-139.496094-56.863282h64v16h-24v16h24v16h-24v16h24v16h-24v16h24v16h-24v16h24v16h-24v16h24v16h-24v16h24v16h-64zm-91.785156 27.839844-19.054688 5.105469 5.242188-18.457031zm-20.796876 22.144532 30.863282-8.273438 44.574218 166.289062h-8.320312l-31.527344-117.832031-15.457031 4.136719 30.425781 113.695312h-8.238281zm241.382813 398.015624h-193.558594l-22.402343-224h238.359374zm-29.816406-240 36.351562-135.648437 30.945313 8.273437-34.097656 127.375zm0 0"/></svg>